<svg width="80" height="80" viewBox="0 0 80 80" fill="none" xmlns="http://www.w3.org/2000/svg">
<rect width="80" height="80" rx="24" fill="url(#paint0_linear_79_674)"/>
<path d="M44.8778 56.0274C47.6317 56.0274 49.8641 58.2598 49.8641 61.0137C49.8641 63.7676 47.6317 66 44.8778 66C42.1239 65.9999 39.8914 63.7675 39.8914 61.0137C39.8914 58.2598 42.1239 56.0274 44.8778 56.0274ZM22.2069 15.1484C22.954 13.3657 25.0052 12.5263 26.7879 13.2734C28.5704 14.0207 29.4099 16.0709 28.6629 17.8535C27.7171 20.1104 26.4966 23.4439 26.1141 26.5488C25.7086 29.8414 26.3728 31.5351 27.4559 32.3008C29.5623 33.7896 33.965 34.539 39.3592 32.8818C44.5839 31.2767 50.2817 27.5113 54.5975 20.8223C55.6455 19.1984 57.8113 18.7315 59.4354 19.7793C61.0592 20.8273 61.5269 22.9931 60.4793 24.6172C55.2654 32.6983 48.2097 37.4857 41.4149 39.5732C37.97 40.6315 34.4551 41.0237 31.243 40.7129C30.7847 42.7548 30.4497 45.5439 30.7059 48.083C31.0133 51.1288 32.02 52.741 33.3631 53.3613C35.1173 54.1721 35.8833 56.2513 35.0731 58.0059C34.2626 59.7604 32.1823 60.5259 30.4276 59.7158C25.6687 57.5177 24.133 52.6691 23.7411 48.7861C23.3716 45.1246 23.8873 41.3472 24.5233 38.7139C24.1404 38.4976 23.7692 38.2671 23.4149 38.0166C19.0004 34.8955 18.6867 29.5914 19.1668 25.6934C19.6701 21.608 21.1979 17.556 22.2069 15.1484Z" fill="#FAFAFA"/>
<defs>
<linearGradient id="paint0_linear_79_674" x1="40" y1="0" x2="40" y2="80" gradientUnits="userSpaceOnUse">
<stop stop-color="#4F39F6"/>
<stop offset="1" stop-color="#00A6F4"/>
</linearGradient>
</defs>
</svg>
