<svg width="144" height="40" viewBox="0 0 144 40" fill="none" xmlns="http://www.w3.org/2000/svg">
<path d="M0 30.9963V0.922511H11.3736C21.0915 0.922511 27.1022 7.08487 27.1022 15.9779C27.1022 24.8708 21.0915 30.9963 11.3736 30.9963H0ZM6.55061 25.0554H11.4816C17.0964 25.0554 20.5516 21.7712 20.5516 15.9779C20.5516 10.1845 17.0964 6.86347 11.4816 6.86347H6.55061V25.0554Z" fill="#020618"/>
<path d="M30.1366 30.9963V9.37269H36.5432V11.5867C37.8029 9.8524 39.7465 8.85609 42.4459 8.85609C43.6337 8.85609 44.3895 8.92989 45.2173 9.22509L45.2893 15.3875C44.3895 14.9078 43.2738 14.6494 42.014 14.6494C38.5948 14.6494 36.5432 16.6421 36.5432 19.9262V30.9963H30.1366Z" fill="#020618"/>
<path d="M48.7457 23.9114C50.7973 23.9114 52.309 25.4982 52.309 27.6015C52.309 29.7048 50.7973 31.2915 48.7457 31.2915C46.6582 31.2915 45.1465 29.7048 45.1465 27.6015C45.1465 25.4982 46.6582 23.9114 48.7457 23.9114Z" fill="#020618"/>
<path d="M91.3334 9.37269H97.704L90.6495 30.9963H84.2069L80.3917 18.6347L76.6125 30.9963H70.2059L63.1514 9.37269H69.9179L73.6611 23.2841L77.3324 9.37269H83.883L87.5902 23.3579L91.3334 9.37269Z" fill="#020618"/>
<path d="M99.9097 30.9963V0H106.316V11.5867C107.576 9.8524 109.52 8.85609 112.219 8.85609C117.114 8.85609 120.461 12.5092 120.461 18.4871V30.9963H114.055V19.5941C114.055 16.31 112.759 14.5018 110.347 14.5018C107.828 14.5018 106.316 16.5314 106.316 19.8893V30.9963H99.9097Z" fill="#020618"/>
<path d="M137.341 9.37269H144L131.871 40H125.572L129.387 30.4059L121.073 9.37269H128.163L132.734 22.7306L137.341 9.37269Z" fill="#020618"/>
</svg>
