<svg width="32" height="32" viewBox="0 0 32 32" fill="none" xmlns="http://www.w3.org/2000/svg">
<rect width="32" height="32" rx="16" fill="url(#paint0_linear_117_2006)"/>
<path d="M17.8493 22.2364C18.8973 22.2365 19.7471 23.0792 19.7471 24.1184C19.747 25.1575 18.8973 25.9999 17.8493 26C16.8012 26 15.9515 25.1575 15.9514 24.1184C15.9514 23.0792 16.8011 22.2364 17.8493 22.2364Z" fill="#FAFAFA"/>
<path d="M9.22057 6.81053C9.50498 6.13787 10.2857 5.82106 10.9641 6.10298C11.6425 6.38497 11.962 7.15867 11.6778 7.8313C11.3178 8.68292 10.8533 9.94085 10.7077 11.1125C10.5533 12.3551 10.8061 12.9941 11.2184 13.2831C12.0201 13.8449 13.6958 14.1277 15.7489 13.5023C17.7374 12.8966 19.9061 11.4757 21.5486 8.95157C21.9476 8.33889 22.7719 8.16265 23.39 8.558C24.008 8.95344 24.1859 9.77077 23.7873 10.3836C21.8029 13.433 19.1174 15.2396 16.5313 16.0274C15.2201 16.4267 13.882 16.5751 12.6594 16.4578C12.485 17.2282 12.3575 18.2805 12.455 19.2386C12.572 20.3879 12.9552 20.9962 13.4663 21.2304C14.1341 21.5363 14.4255 22.3209 14.1172 22.983C13.8087 23.6452 13.0169 23.9341 12.349 23.6283C10.5378 22.7987 9.95326 20.9691 9.80411 19.5039C9.66352 18.1223 9.85982 16.6971 10.1018 15.7034C9.95616 15.6218 9.81518 15.5344 9.68034 15.4399C8.00011 14.2622 7.88075 12.2607 8.06351 10.7897C8.25507 9.24806 8.83656 7.71899 9.22057 6.81053Z" fill="#FAFAFA"/>
<defs>
<linearGradient id="paint0_linear_117_2006" x1="16" y1="0" x2="16" y2="32" gradientUnits="userSpaceOnUse">
<stop stop-color="#4F39F6"/>
<stop offset="1" stop-color="#00A6F4"/>
</linearGradient>
</defs>
</svg>
