<svg width="24" height="24" viewBox="0 0 24 24" fill="none" xmlns="http://www.w3.org/2000/svg">
<g clip-path="url(#clip0_338_2022)">
<circle opacity="0.5" cx="12" cy="12" r="11.5" stroke="#FAFAFA"/>
<path d="M10.5973 5.02441C11.052 4.90158 11.524 5.25834 11.652 5.59668C11.7795 5.93507 11.4703 6.50195 11.4703 6.50195C11.4717 6.50388 12.0676 7.36465 12.486 8.18262C12.9454 8.23657 13.382 8.36467 13.7838 8.55469C14.1064 8.06181 14.527 7.56348 14.527 7.56348C14.5219 7.55125 14.3662 7.17452 14.4694 6.9668C14.5744 6.75575 14.903 6.55395 15.1891 6.66113C15.4753 6.76854 15.5759 7.13133 15.5055 7.35547C15.4363 7.5756 15.059 7.7516 15.0455 7.75781C15.0455 7.75781 14.9937 8.64518 14.8365 9.26562C14.8701 9.29655 14.9037 9.32739 14.9362 9.35938C15.8698 9.00321 17.163 8.74079 17.1705 8.73926C17.1705 8.73926 17.3605 8.12563 17.6969 7.96973C18.0335 7.81412 18.6287 7.87703 18.8649 8.27148C19.101 8.66601 18.8604 9.19497 18.5524 9.39844C18.2471 9.60003 17.6098 9.45574 17.5983 9.45312C17.5983 9.45312 16.7391 10.3768 15.9596 10.9814C16.0054 11.1141 16.0453 11.2494 16.0778 11.3877C16.7169 11.4246 17.9069 11.8779 17.9069 11.8779C17.9069 11.8779 18.2377 11.6098 18.4781 11.6416C18.7186 11.6736 19.0181 11.9142 18.9996 12.21C18.9811 12.5054 18.6544 12.7088 18.4117 12.7129C18.169 12.7167 17.8727 12.4131 17.8727 12.4131C17.8494 12.4189 16.8326 12.6721 16.1744 12.6885C16.1604 12.866 16.1367 13.0403 16.1012 13.2109C16.8337 13.8066 17.587 14.6129 17.5983 14.625C17.6144 14.6213 18.2483 14.4798 18.5524 14.6807C18.8604 14.8842 19.101 15.4131 18.8649 15.8076C18.6287 16.2019 18.0335 16.265 17.6969 16.1094C17.3617 15.9541 17.172 15.3445 17.1705 15.3398C17.1705 15.3398 16.2172 15.1454 15.3551 14.8652C15.1454 15.1455 14.9004 15.3973 14.6285 15.6172C14.9665 16.0918 15.2422 17.4465 15.2448 17.459C15.2497 17.4605 15.6574 17.5855 15.7584 17.7969C15.86 18.0095 15.8115 18.382 15.5436 18.5264C15.2754 18.6706 14.9209 18.5146 14.7867 18.3193C14.6549 18.1272 14.7561 17.7333 14.7594 17.7207C14.7594 17.7207 13.7438 16.8149 13.4742 16.2803C13.3597 16.3235 13.2427 16.3612 13.1237 16.3945C12.9542 17.3086 12.6048 18.3458 12.6031 18.3506C12.6031 18.3506 13.0595 18.8167 13.0309 19.1758C13.0021 19.5348 12.6475 20 12.1754 20C11.7035 19.9998 11.3497 19.5347 11.3209 19.1758C11.2923 18.8167 11.7487 18.3506 11.7487 18.3506C11.7487 18.3506 11.417 17.3761 11.2418 16.4824C10.9545 16.4306 10.6775 16.3502 10.4137 16.2432C9.94651 16.6853 9.17679 17.1803 9.15491 17.1943C9.15491 17.1943 9.19172 17.6093 9.02698 17.7812C8.8621 17.9532 8.48646 18.0531 8.24573 17.8691C8.00523 17.6852 8.02025 17.3094 8.15588 17.1152C8.29066 16.9232 8.71054 16.8624 8.71838 16.8613C8.72352 16.8479 9.0014 16.1242 9.31311 15.5859C9.12616 15.4309 8.95309 15.2599 8.79553 15.0752C8.10987 15.4938 7.41391 15.837 7.39807 15.8447C7.39767 15.8575 7.3759 16.4877 7.09534 16.7197C6.81191 16.9539 6.22024 17.0415 5.88635 16.7197C5.55245 16.3976 5.6434 15.8262 5.88635 15.5527C6.12574 15.2836 6.77299 15.2623 6.7926 15.2617C6.7926 15.2617 7.25844 14.3736 7.77991 13.6289C7.13109 13.5437 6.27829 13.2772 6.26331 13.2725C6.26331 13.2725 5.94872 13.559 5.70667 13.541C5.46467 13.5228 5.151 13.3 5.151 13.0039C5.15116 12.7079 5.46473 12.486 5.70667 12.4678C5.94872 12.4498 6.26331 12.7363 6.26331 12.7363C6.27087 12.7339 7.13936 12.4596 7.7926 12.376C7.79256 12.3682 7.7926 12.3604 7.7926 12.3525C7.7926 12.1731 7.80395 11.9958 7.82581 11.8223C7.14402 11.5953 6.13525 10.9628 6.11682 10.9512C6.11682 10.9512 5.70008 11.168 5.44885 11.083C5.19767 10.9977 4.93003 10.6762 5.01721 10.3623C5.10445 10.0485 5.50256 9.89903 5.76428 9.94629C6.02333 9.99319 6.26909 10.3751 6.27405 10.3828C6.27405 10.3828 7.534 10.3171 8.2428 10.46C8.30552 10.336 8.37359 10.2152 8.44788 10.0986C8.00766 9.42808 7.64807 8.74512 7.64807 8.74512C7.64807 8.74512 6.98381 8.72753 6.74084 8.4541C6.49792 8.18069 6.40707 7.60925 6.74084 7.28711C7.07475 6.96498 7.66737 7.05273 7.95081 7.28711C8.23294 7.52072 8.25241 8.15716 8.25256 8.16211C8.25256 8.16211 8.9226 8.49135 9.59924 8.90039C9.92281 8.67575 10.2798 8.49633 10.6608 8.36914C10.6108 7.55599 10.6463 6.74335 10.6471 6.72461C10.6471 6.72461 10.0773 6.39425 10.0045 6.04102C9.93189 5.68787 10.1429 5.14741 10.5973 5.02441Z" fill="#FAFAFA"/>
</g>
<defs>
<clipPath id="clip0_338_2022">
<rect width="24" height="24" fill="white"/>
</clipPath>
</defs>
</svg>
