<svg width="56" height="56" viewBox="0 0 56 56" fill="none" xmlns="http://www.w3.org/2000/svg">
<g clip-path="url(#clip0_223_71)">
<circle cx="28" cy="23" r="12" fill="#FAFAFA"/>
<g filter="url(#filter0_d_223_71)">
<path d="M41.125 23C41.1253 20.4841 40.4024 18.0212 39.0426 15.9045C37.6827 13.7878 35.7432 12.1065 33.4549 11.0609C31.1666 10.0153 28.626 9.64938 26.1356 10.0068C23.6452 10.3641 21.3101 11.4297 19.4082 13.0767C17.5063 14.7236 16.1178 16.8824 15.4081 19.2961C14.6983 21.7098 14.6973 24.2766 15.405 26.6909C16.1128 29.1052 17.4995 31.2652 19.4001 32.9136C21.3006 34.5621 23.6349 35.6296 26.125 35.989V38.625H21.75C21.2527 38.625 20.7758 38.8225 20.4242 39.1742C20.0725 39.5258 19.875 40.0027 19.875 40.5C19.875 40.9973 20.0725 41.4742 20.4242 41.8258C20.7758 42.1774 21.2527 42.375 21.75 42.375H26.125V45.5C26.125 45.9973 26.3225 46.4742 26.6742 46.8258C27.0258 47.1774 27.5027 47.375 28 47.375C28.4973 47.375 28.9742 47.1774 29.3258 46.8258C29.6775 46.4742 29.875 45.9973 29.875 45.5V42.375H34.25C34.7473 42.375 35.2242 42.1774 35.5758 41.8258C35.9275 41.4742 36.125 40.9973 36.125 40.5C36.125 40.0027 35.9275 39.5258 35.5758 39.1742C35.2242 38.8225 34.7473 38.625 34.25 38.625H29.875V35.989C32.9969 35.5345 35.8511 33.9722 37.9166 31.5875C39.982 29.2028 41.1208 26.1548 41.125 23ZM18.625 23C18.625 21.1458 19.1748 19.3332 20.205 17.7915C21.2351 16.2498 22.6993 15.0482 24.4123 14.3386C26.1254 13.629 28.0104 13.4434 29.829 13.8051C31.6475 14.1669 33.318 15.0597 34.6291 16.3709C35.9402 17.682 36.8331 19.3524 37.1949 21.171C37.5566 22.9896 37.3709 24.8746 36.6614 26.5876C35.9518 28.3007 34.7502 29.7649 33.2085 30.795C31.6668 31.8252 29.8542 32.375 28 32.375C25.5145 32.3721 23.1316 31.3834 21.3741 29.6259C19.6165 27.8684 18.6279 25.4855 18.625 23Z" fill="url(#paint0_linear_223_71)"/>
</g>
</g>
<defs>
<filter id="filter0_d_223_71" x="12.875" y="7.87366" width="30.25" height="41.5013" filterUnits="userSpaceOnUse" color-interpolation-filters="sRGB">
<feFlood flood-opacity="0" result="BackgroundImageFix"/>
<feColorMatrix in="SourceAlpha" type="matrix" values="0 0 0 0 0 0 0 0 0 0 0 0 0 0 0 0 0 0 127 0" result="hardAlpha"/>
<feOffset/>
<feGaussianBlur stdDeviation="1"/>
<feComposite in2="hardAlpha" operator="out"/>
<feColorMatrix type="matrix" values="0 0 0 0 1 0 0 0 0 0.635294 0 0 0 0 0.643137 0 0 0 0.25 0"/>
<feBlend mode="normal" in2="BackgroundImageFix" result="effect1_dropShadow_223_71"/>
<feBlend mode="normal" in="SourceGraphic" in2="effect1_dropShadow_223_71" result="shape"/>
</filter>
<linearGradient id="paint0_linear_223_71" x1="19" y1="14" x2="35.5" y2="47" gradientUnits="userSpaceOnUse">
<stop stop-color="#FFA2A4"/>
<stop offset="1" stop-color="#FF595C"/>
</linearGradient>
<clipPath id="clip0_223_71">
<rect width="40" height="40" fill="white" transform="translate(8 8)"/>
</clipPath>
</defs>
</svg>
