<svg width="56" height="56" viewBox="0 0 56 56" fill="none" xmlns="http://www.w3.org/2000/svg">
<circle cx="24" cy="32" r="12" fill="#FAFAFA"/>
<g filter="url(#filter0_d_223_65)">
<path d="M41.7499 12.375H34.2499C33.7526 12.375 33.2757 12.5725 32.9241 12.9242C32.5725 13.2758 32.3749 13.7527 32.3749 14.25C32.3749 14.7473 32.5725 15.2242 32.9241 15.5758C33.2757 15.9275 33.7526 16.125 34.2499 16.125H37.2187L32.1062 21.2406C29.4484 19.2544 26.137 18.3484 22.8382 18.705C19.5395 19.0617 16.4982 20.6545 14.3264 23.1629C12.1546 25.6713 11.0134 28.9092 11.1325 32.2251C11.2516 35.5409 12.6221 38.6886 14.9683 41.0348C17.3144 43.3809 20.4621 44.7515 23.778 44.8705C27.0938 44.9896 30.3317 43.8485 32.8401 41.6766C35.3485 39.5048 36.9413 36.4636 37.298 33.1648C37.6546 29.8661 36.7487 26.5546 34.7624 23.8969L39.8749 18.7812V21.75C39.8749 22.2473 40.0725 22.7242 40.4241 23.0758C40.7757 23.4275 41.2526 23.625 41.7499 23.625C42.2472 23.625 42.7241 23.4275 43.0757 23.0758C43.4274 22.7242 43.6249 22.2473 43.6249 21.75V14.25C43.6249 13.7527 43.4274 13.2758 43.0757 12.9242C42.7241 12.5725 42.2472 12.375 41.7499 12.375ZM30.8765 38.3844C29.5652 39.6951 27.8947 40.5876 26.0763 40.949C24.2578 41.3105 22.373 41.1246 20.6602 40.4149C18.9473 39.7052 17.4834 38.5036 16.4534 36.962C15.4234 35.4204 14.8737 33.6079 14.8737 31.7539C14.8737 29.8999 15.4234 28.0875 16.4534 26.5458C17.4834 25.0042 18.9473 23.8026 20.6602 23.0929C22.373 22.3832 24.2578 22.1973 26.0763 22.5588C27.8947 22.9202 29.5652 23.8127 30.8765 25.1234C32.6316 26.8837 33.6172 29.2681 33.6172 31.7539C33.6172 34.2397 32.6316 36.6241 30.8765 38.3844Z" fill="url(#paint0_linear_223_65)"/>
</g>
<defs>
<filter id="filter0_d_223_65" x="9.12402" y="10.375" width="36.501" height="36.504" filterUnits="userSpaceOnUse" color-interpolation-filters="sRGB">
<feFlood flood-opacity="0" result="BackgroundImageFix"/>
<feColorMatrix in="SourceAlpha" type="matrix" values="0 0 0 0 0 0 0 0 0 0 0 0 0 0 0 0 0 0 127 0" result="hardAlpha"/>
<feOffset/>
<feGaussianBlur stdDeviation="1"/>
<feComposite in2="hardAlpha" operator="out"/>
<feColorMatrix type="matrix" values="0 0 0 0 0.478431 0 0 0 0 0.929412 0 0 0 0 1 0 0 0 0.3 0"/>
<feBlend mode="normal" in2="BackgroundImageFix" result="effect1_dropShadow_223_65"/>
<feBlend mode="normal" in="SourceGraphic" in2="effect1_dropShadow_223_65" result="shape"/>
</filter>
<linearGradient id="paint0_linear_223_65" x1="20.5" y1="19" x2="27.3745" y2="44.879" gradientUnits="userSpaceOnUse">
<stop stop-color="#53E8FF"/>
<stop offset="1" stop-color="#03D1F0"/>
</linearGradient>
</defs>
</svg>
