<svg width="24" height="24" viewBox="0 0 24 24" fill="none" xmlns="http://www.w3.org/2000/svg">
<g clip-path="url(#clip0_410_1379)">
<circle opacity="0.5" cx="12" cy="12" r="11.5" stroke="#FAFAFA"/>
<path d="M8.16071 13.4C7.52088 13.4 6.99264 12.8581 7.00008 12.1923C6.99264 11.5419 7.52088 11.0077 8.16071 11C8.77823 11.0077 9.30647 11.5419 9.30647 12.1923C9.30647 12.8581 8.77823 13.4 8.16071 13.4Z" fill="#FAFAFA"/>
<path d="M12.0075 13.4C11.3676 13.4 10.8394 12.8581 10.8468 12.1923C10.8394 11.5419 11.3676 11.0077 12.0075 11C12.625 11.0077 13.1532 11.5419 13.1532 12.1923C13.1532 12.8581 12.625 13.4 12.0075 13.4Z" fill="#FAFAFA"/>
<path d="M15.8542 13.4C15.2144 13.4 14.6862 12.8581 14.6936 12.1923C14.6862 11.5419 15.2144 11.0077 15.8542 11C16.4718 11.0077 17 11.5419 17 12.1923C17 12.8581 16.4718 13.4 15.8542 13.4Z" fill="#FAFAFA"/>
</g>
<defs>
<clipPath id="clip0_410_1379">
<rect width="24" height="24" fill="white"/>
</clipPath>
</defs>
</svg>
