<svg width="24" height="24" viewBox="0 0 24 24" fill="none" xmlns="http://www.w3.org/2000/svg">
<g clip-path="url(#clip0_338_1901)">
<circle opacity="0.5" cx="12" cy="12" r="11.5" stroke="#FAFAFA"/>
<path d="M11.1337 5.50024C11.5186 4.83358 12.4812 4.83358 12.8661 5.50024L18.9286 16.0002C19.3132 16.6668 18.832 17.5001 18.0624 17.5002H5.93744C5.16787 17.5 4.68737 16.6668 5.0722 16.0002L11.1337 5.50024ZM11.9999 14.0002C11.4451 14.0003 10.9999 14.5413 10.9999 15.0002C11 15.4702 11.452 16.0002 12.0068 16.0002C12.5356 16 12.9999 15.4701 12.9999 15.0002C12.9999 14.5412 12.529 14.0002 11.9999 14.0002ZM11.1161 8.00024L11.2714 13.0002H12.7294L12.871 8.00024H11.1161Z" fill="#FAFAFA"/>
</g>
<defs>
<clipPath id="clip0_338_1901">
<rect width="24" height="24" fill="white"/>
</clipPath>
</defs>
</svg>
