<svg width="24" height="24" viewBox="0 0 24 24" fill="none" xmlns="http://www.w3.org/2000/svg">
<g clip-path="url(#clip0_338_2063)">
<circle opacity="0.5" cx="12" cy="12" r="11.5" stroke="#FAFAFA"/>
<path d="M11.0423 6.7905C11.0919 6.8151 11.1354 6.85039 11.1698 6.89383C11.2042 6.93728 11.2285 6.98779 11.241 7.04175C11.2545 7.101 11.625 8.6865 11.625 9.75C11.625 10.4625 11.2935 11.0978 10.7775 11.5095C10.59 11.6595 10.5 11.823 10.5 11.9595V12.324C10.5 12.3415 10.501 12.358 10.503 12.3735C10.5285 12.5595 10.6207 13.2503 10.707 13.9665C10.7917 14.6693 10.875 15.4358 10.875 15.75C10.875 16.1478 10.717 16.5294 10.4357 16.8107C10.1544 17.092 9.77282 17.25 9.375 17.25C8.97718 17.25 8.59564 17.092 8.31434 16.8107C8.03304 16.5294 7.875 16.1478 7.875 15.75C7.875 15.435 7.95825 14.67 8.043 13.9665C8.12925 13.2503 8.2215 12.5595 8.247 12.3735L8.25 12.324V11.9595C8.25 11.823 8.16 11.6595 7.9725 11.5095C7.70811 11.2987 7.49462 11.0311 7.3479 10.7265C7.20117 10.4219 7.12499 10.0881 7.125 9.75C7.125 8.69025 7.4925 7.113 7.509 7.0425C7.5285 6.95913 7.57567 6.88483 7.64282 6.83171C7.70996 6.77859 7.79313 6.74979 7.87875 6.75C8.08875 6.75 8.259 6.92025 8.259 7.13025V9.37875C8.25604 9.4294 8.2635 9.48011 8.28091 9.52777C8.29831 9.57542 8.3253 9.619 8.36021 9.65582C8.39512 9.69264 8.4372 9.72191 8.48386 9.74183C8.53052 9.76175 8.58076 9.77189 8.6315 9.77163C8.68223 9.77138 8.73237 9.76072 8.77883 9.74033C8.82528 9.71994 8.86707 9.69025 8.9016 9.65308C8.93613 9.61591 8.96268 9.57206 8.9796 9.52423C8.99653 9.47641 9.00347 9.42562 9 9.375V7.125C9 7.02555 9.03951 6.93016 9.10984 6.85984C9.18016 6.78951 9.27554 6.75 9.375 6.75C9.47446 6.75 9.56984 6.78951 9.64016 6.85984C9.71049 6.93016 9.75 7.02555 9.75 7.125V9.3945C9.75209 9.49296 9.79321 9.58656 9.86431 9.65471C9.9354 9.72285 10.0307 9.75996 10.1291 9.75788C10.2276 9.75579 10.3212 9.71467 10.3893 9.64357C10.4575 9.57247 10.4946 9.47721 10.4925 9.37875V7.12875C10.4925 6.9195 10.662 6.75 10.872 6.75C10.8885 6.75 10.962 6.75 11.0423 6.7905ZM12.75 10.125C12.75 9.2299 13.1056 8.37145 13.7385 7.73852C14.3714 7.10558 15.2299 6.75 16.125 6.75C16.2245 6.75 16.3198 6.78951 16.3902 6.85984C16.4605 6.93016 16.5 7.02555 16.5 7.125V11.6048L16.5142 11.7375C16.5739 12.2973 16.6312 12.8573 16.686 13.4175C16.7782 14.3595 16.875 15.4155 16.875 15.75C16.875 16.1478 16.717 16.5294 16.4357 16.8107C16.1544 17.092 15.7728 17.25 15.375 17.25C14.9772 17.25 14.5956 17.092 14.3143 16.8107C14.033 16.5294 13.875 16.1478 13.875 15.75C13.875 15.4155 13.9717 14.3595 14.064 13.4175C14.1112 12.9398 14.1585 12.4823 14.1938 12.1433L14.2087 12H13.5C13.3011 12 13.1103 11.921 12.9697 11.7803C12.829 11.6397 12.75 11.4489 12.75 11.25V10.125Z" fill="#FAFAFA"/>
</g>
<defs>
<clipPath id="clip0_338_2063">
<rect width="24" height="24" fill="white"/>
</clipPath>
</defs>
</svg>
