<svg width="24" height="24" viewBox="0 0 24 24" fill="none" xmlns="http://www.w3.org/2000/svg">
    <g clip-path="url(#clip0_338_1993)">
        <circle opacity="0.5" cx="12" cy="12" r="11.5" stroke="#FAFAFA" />
        <path
            d="M7.67957 7.30884C9.67629 5.50501 12.7592 5.5653 14.6835 7.4895L14.8641 7.67896C16.437 9.42004 16.5917 11.9864 15.33 13.8909L17.8534 16.4143C18.0482 16.6096 18.0485 16.9262 17.8534 17.1213L17.121 17.8528C16.9257 18.0477 16.6091 18.0479 16.4139 17.8528L13.8915 15.3293C11.987 16.591 9.4207 16.4365 7.67957 14.8635L7.49011 14.6829C5.5038 12.6965 5.50383 9.47591 7.49011 7.4895L7.67957 7.30884ZM13.2694 8.90356C12.0641 7.69834 10.1095 7.69846 8.90417 8.90356C7.69894 10.1089 7.69891 12.0635 8.90417 13.2688C9.99665 14.361 11.7044 14.4632 12.912 13.5754L13.5692 12.9182C14.463 11.7102 14.364 9.99835 13.2694 8.90356Z"
            fill="#FAFAFA" />
    </g>
    <defs>
        <clipPath id="clip0_338_1993">
            <rect width="24" height="24" fill="white" />
        </clipPath>
    </defs>
</svg>
