<svg width="24" height="24" viewBox="0 0 24 24" fill="none" xmlns="http://www.w3.org/2000/svg">
<g clip-path="url(#clip0_338_1556)">
<circle opacity="0.5" cx="12" cy="12" r="11.5" stroke="#FAFAFA"/>
<rect x="9" y="15" width="6" height="4" rx="1" fill="#FAFAFA"/>
<path d="M12 5C14.7614 5 17 7.23858 17 10C17 12.0502 15.7657 13.8114 14 14.583V16H10V14.583C8.23428 13.8114 7 12.0502 7 10C7 7.23858 9.23858 5 12 5ZM13.5 9C12.8455 9 12.2899 9.41943 12.085 10.0039C12.0569 10.0015 12.0286 10 12 10C11.971 10 11.9424 10.0015 11.9141 10.0039C11.7091 9.41959 11.1543 9 10.5 9C9.67157 9 9 9.67157 9 10.5C9 11.3284 9.67157 12 10.5 12C10.6756 12 10.8434 11.9676 11 11.9121V14C11 14.5523 11.4477 15 12 15C12.5523 15 13 14.5523 13 14V11.9121C13.1566 11.9676 13.3244 12 13.5 12C14.3284 12 15 11.3284 15 10.5C15 9.67157 14.3284 9 13.5 9ZM13.5 9.7002C13.9418 9.7002 14.2998 10.0582 14.2998 10.5C14.2998 10.9418 13.9418 11.2998 13.5 11.2998C13.4115 11.2998 13.3224 11.2835 13.2334 11.252C13.0192 11.1762 12.7812 11.2097 12.5957 11.3408C12.4103 11.472 12.2998 11.685 12.2998 11.9121V14C12.2998 14.1657 12.1657 14.2998 12 14.2998C11.8343 14.2998 11.7002 14.1657 11.7002 14V11.9121C11.7002 11.685 11.5897 11.472 11.4043 11.3408C11.2188 11.2097 10.9808 11.1762 10.7666 11.252C10.6776 11.2835 10.5885 11.2998 10.5 11.2998C10.0582 11.2998 9.7002 10.9418 9.7002 10.5C9.7002 10.0582 10.0582 9.7002 10.5 9.7002C10.8464 9.7002 11.1437 9.9215 11.2539 10.2354C11.3596 10.5366 11.6555 10.7283 11.9736 10.7012C11.9866 10.7001 11.995 10.7002 12 10.7002C12.0037 10.7002 12.0118 10.6999 12.0264 10.7012C12.3443 10.7279 12.6396 10.5364 12.7451 10.2354C12.855 9.92203 13.1528 9.7002 13.5 9.7002Z" fill="#FAFAFA"/>
<circle cx="12" cy="18" r="2" fill="#FAFAFA"/>
</g>
<defs>
<clipPath id="clip0_338_1556">
<rect width="24" height="24" fill="white"/>
</clipPath>
</defs>
</svg>
