<svg width="288" height="90" viewBox="0 0 288 90" fill="none" xmlns="http://www.w3.org/2000/svg">
<path d="M45.4375 6.80078V8.79297C45.4375 11.1562 45.4375 13.5977 44.793 17.3086L42.5859 17.1133C43.2695 13.6367 43.2695 11.0781 43.2695 8.79297V8.55859H33.0938V6.80078H45.4375ZM47.4883 18.5391V20.3164H31.3945V18.5391H47.4883ZM63.0648 5.08203V14.6719H60.8969V10.043H57.8891V8.28516H60.8969V5.08203H63.0648ZM63.3773 15.5703V17.2109H50.9164V15.5703H56.0727V14.1445H58.2406V15.5703H63.3773ZM57.1469 17.7773C60.3305 17.7773 62.1859 18.6172 62.1859 20.2383C62.1859 21.8789 60.3305 22.7188 57.1469 22.7188C53.9633 22.7188 52.1273 21.8789 52.1273 20.2383C52.1273 18.6172 53.9633 17.7773 57.1469 17.7773ZM57.1469 19.2812C55.1937 19.2812 54.2172 19.6328 54.2367 20.2383C54.2172 20.9023 55.1937 21.2148 57.1469 21.2148C59.1 21.2148 60.0766 20.9023 60.0766 20.2383C60.0766 19.6328 59.1 19.2812 57.1469 19.2812ZM56.932 5.86328V10.5117H51.1508V12.0547C53.9828 12.0449 55.9457 11.9766 58.2016 11.5469L58.3969 13.2461C55.8578 13.6758 53.6703 13.7344 50.3695 13.7344H48.9633V8.96875H54.7641V7.50391H48.9437V5.86328H56.932ZM78.993 5.08203V11.7812H81.7078V13.5586H78.993V22.7578H76.825V5.08203H78.993ZM74.1492 6.76172V8.51953H68.0555V16.625C70.7996 16.625 72.9676 16.4883 75.3992 16.0586L75.6531 17.8945C72.9187 18.3633 70.5359 18.4414 67.3523 18.4414H65.8875V6.76172H74.1492ZM91.1125 6.56641V7.97266H94.6672V5.10156H96.8352V17.9531H94.6672V13.5H91.1125V15.0234H82.8117V6.56641H91.1125ZM84.9797 8.28516V13.3242H88.9641V8.28516H84.9797ZM97.2258 20.6289V22.3867H85.1945V16.7617H87.4016V20.6289H97.2258ZM91.1125 11.7617H94.6672V9.75H91.1125V11.7617ZM102.373 19.6133L100.732 25.082H98.8766L99.8922 19.6133H102.373ZM112.803 6.37109C115.196 6.37109 116.963 8.36328 117.276 11.5859H120.635V5.08203H122.784V22.7578H120.635V13.3438H117.295C117.061 16.752 115.264 18.8516 112.803 18.8516C110.147 18.8516 108.272 16.4492 108.272 12.6016C108.272 8.79297 110.147 6.37109 112.803 6.37109ZM112.803 8.32422C111.338 8.32422 110.342 9.90625 110.362 12.6016C110.342 15.3164 111.338 16.8984 112.803 16.8984C114.268 16.8984 115.245 15.3164 115.264 12.6016C115.245 9.90625 114.268 8.32422 112.803 8.32422ZM140.098 15.4531V17.1133H127.188V15.4531H132.579V13.9492H134.747V15.4531H140.098ZM133.614 17.7383C136.837 17.7383 138.751 18.6367 138.751 20.2188C138.751 21.8594 136.837 22.7383 133.614 22.7383C130.391 22.7383 128.458 21.8594 128.477 20.2188C128.458 18.6367 130.391 17.7383 133.614 17.7383ZM133.614 19.2422C131.798 19.2617 130.782 19.5742 130.782 20.2188C130.782 20.9023 131.798 21.2344 133.614 21.2344C135.411 21.2344 136.407 20.9023 136.427 20.2188C136.407 19.5742 135.411 19.2617 133.614 19.2422ZM129.786 5.86328V7.5625H127.345V11.625C128.184 11.5859 129.034 11.498 129.981 11.293L130.137 12.9922C128.595 13.3047 127.423 13.3242 126.036 13.3242H125.216V5.86328H129.786ZM135.606 5.86328V7.5625H132.813V11.625C134.171 11.6055 135.069 11.5176 136.114 11.2734L136.29 12.9922C134.923 13.3047 133.79 13.3242 131.583 13.3242H130.665V5.86328H135.606ZM139.805 5.08203V14.4961H137.677V10.2578H135.001V8.59766H137.677V5.08203H139.805ZM156.984 5.08203V22.7383H154.913V5.08203H156.984ZM153.234 5.51172V21.8984H151.183V13.7734H148.038C147.003 15.8047 145.343 17.5625 142.843 19.0078L141.613 17.4648C145.275 15.3066 146.945 12.543 147.277 8.98828H142.511V7.23047H149.425C149.425 8.93945 149.22 10.541 148.741 12.0352H151.183V5.51172H153.234ZM171.594 7.89453V9.63281H162.941V7.89453H166.223V5.58984H168.371V7.89453H171.594ZM167.297 10.5703C169.543 10.5703 171.145 12.2695 171.145 14.6719C171.145 17.1133 169.543 18.832 167.297 18.832C165.07 18.832 163.43 17.1133 163.449 14.6719C163.43 12.2695 165.07 10.5703 167.297 10.5703ZM167.297 12.3672C166.145 12.3672 165.344 13.2852 165.363 14.6719C165.344 16.0977 166.145 16.9961 167.297 16.9766C168.43 16.9961 169.23 16.0977 169.23 14.6719C169.23 13.2852 168.43 12.3672 167.297 12.3672ZM178.156 5.08203V22.7383H176.086V14.1055H174.367V21.9375H172.336V5.45312H174.367V12.3477H176.086V5.08203H178.156ZM184.612 6.37109C187.268 6.37109 189.182 8.79297 189.202 12.6016C189.182 16.4492 187.268 18.8516 184.612 18.8516C181.936 18.8516 180.002 16.4492 180.022 12.6016C180.002 8.79297 181.936 6.37109 184.612 6.37109ZM184.612 8.32422C183.127 8.32422 182.112 9.90625 182.112 12.6016C182.112 15.3164 183.127 16.8984 184.612 16.8984C186.116 16.8984 187.112 15.3164 187.112 12.6016C187.112 9.90625 186.116 8.32422 184.612 8.32422ZM196.311 9.30078V11.1172H193.694V14.5156H196.311V16.293H193.694V22.7383H191.526V5.08203H193.694V9.30078H196.311ZM210.677 5.04297V9.02734H213.157V10.7852H210.677V14.6719H208.509V5.04297H210.677ZM210.677 15.4531V19.7109H201.302V20.9609H211.223V22.582H199.153V18.207H208.509V17.0352H199.134V15.4531H210.677ZM207.239 6.50781V8.16797H196.77V6.50781H200.93V4.94531H203.098V6.50781H207.239ZM202.005 8.71484C204.622 8.73438 206.302 9.84766 206.321 11.6055C206.302 13.4219 204.622 14.4961 202.005 14.4961C199.387 14.4961 197.669 13.4219 197.669 11.6055C197.669 9.84766 199.387 8.73438 202.005 8.71484ZM202.005 10.2773C200.637 10.2773 199.778 10.7656 199.778 11.6055C199.778 12.4648 200.637 12.9336 202.005 12.9336C203.372 12.9336 204.251 12.4648 204.251 11.6055C204.251 10.7656 203.372 10.2773 202.005 10.2773ZM227.718 5.08203V12.1328H230.159V13.9297H227.718V22.7383H225.53V5.08203H227.718ZM218.929 6.9375C218.909 11.5664 218.265 15.4727 215.081 18.9102L213.382 17.6797C215.872 15.043 216.683 12.25 216.859 8.71484H214.085V6.9375H218.929ZM223.812 6.9375C223.792 11.6836 223.304 16.2148 220.12 20.043L218.382 18.8516C220.902 15.8535 221.605 12.543 221.761 8.71484H219.515V6.9375H223.812ZM246.654 18.8125V20.5898H230.521V18.8125H234.252V14.3398C232.845 13.5391 231.996 12.2793 232.005 10.707C231.986 7.89453 234.759 6.03906 238.548 6.03906C242.357 6.03906 245.13 7.89453 245.13 10.707C245.13 12.25 244.31 13.4902 242.943 14.3008V18.8125H246.654ZM238.548 7.75781C235.912 7.75781 234.115 8.87109 234.134 10.707C234.115 12.5234 235.912 13.6562 238.548 13.6562C241.185 13.6562 243.002 12.5234 243.002 10.707C243.002 8.87109 241.185 7.75781 238.548 7.75781ZM236.4 18.8125H240.736V15.1211C240.062 15.2773 239.33 15.3555 238.548 15.3555C237.787 15.3555 237.064 15.2773 236.4 15.1406V18.8125ZM250.395 16.6641C250.414 14.1836 251.117 13.4219 252.348 12.6602C253.188 12.1328 253.812 11.4688 253.812 10.4922C253.812 9.39844 252.973 8.69531 251.898 8.69531C250.922 8.69531 249.984 9.32031 249.926 10.6289H247.484C247.543 8.01172 249.516 6.66406 251.918 6.66406C254.555 6.66406 256.371 8.12891 256.371 10.4531C256.371 12.0352 255.57 13.0703 254.301 13.832C253.168 14.5156 252.699 15.1992 252.68 16.6641V16.8398H250.395V16.6641ZM251.605 21.1562C250.766 21.1562 250.082 20.4727 250.082 19.6328C250.082 18.8125 250.766 18.1289 251.605 18.1289C252.406 18.1289 253.109 18.8125 253.109 19.6328C253.109 20.4727 252.406 21.1562 251.605 21.1562Z" fill="#FAFAFA"/>
<path d="M143.999 90L138.666 80.88H149.333L143.999 90Z" fill="url(#paint0_linear_199_1991)"/>
<path d="M143.999 78.8533L137.778 68.2133H150.222L143.999 78.8533Z" fill="url(#paint1_linear_199_1991)"/>
<path d="M152 52L143.999 65.68L136 52H152Z" fill="url(#paint2_linear_199_1991)"/>
<defs>
<linearGradient id="paint0_linear_199_1991" x1="144" y1="52" x2="144" y2="90" gradientUnits="userSpaceOnUse">
<stop stop-color="white" stop-opacity="0.7"/>
<stop offset="1" stop-color="white" stop-opacity="0.2"/>
</linearGradient>
<linearGradient id="paint1_linear_199_1991" x1="144" y1="52" x2="144" y2="90" gradientUnits="userSpaceOnUse">
<stop stop-color="white" stop-opacity="0.7"/>
<stop offset="1" stop-color="white" stop-opacity="0.2"/>
</linearGradient>
<linearGradient id="paint2_linear_199_1991" x1="144" y1="52" x2="144" y2="90" gradientUnits="userSpaceOnUse">
<stop stop-color="white" stop-opacity="0.7"/>
<stop offset="1" stop-color="white" stop-opacity="0.2"/>
</linearGradient>
</defs>
</svg>
