<svg width="136" height="252" viewBox="0 0 136 252" fill="none" xmlns="http://www.w3.org/2000/svg">
<path d="M123.115 204.583C136.217 204.583 146.838 215.198 146.838 228.292C146.837 241.385 136.217 252 123.115 252C110.015 252 99.3936 241.384 99.3926 228.292C99.3926 215.198 110.014 204.584 123.115 204.583Z" fill="#FAFAFA" fill-opacity="0.1"/>
<path d="M15.2568 10.2121C18.8118 1.7372 28.5708 -2.25414 37.0515 1.29707C45.5313 4.84983 49.5247 14.5985 45.972 23.0739C41.4723 33.8041 35.666 49.6549 33.8458 64.4174C31.9165 80.0712 35.0776 88.1248 40.2295 91.7661C50.2511 98.845 71.1971 102.408 96.8604 94.5289C121.717 86.8968 148.825 68.9937 169.358 37.1894C174.344 29.4698 184.648 27.2501 192.374 32.2304C200.1 37.2129 202.324 47.5111 197.341 55.2331C172.535 93.6563 138.967 116.419 106.64 126.344C90.2512 131.376 73.529 133.245 58.2469 131.768C56.0669 141.476 54.4729 154.738 55.6916 166.81C57.1545 181.291 61.9438 188.957 68.3335 191.907C76.6789 195.762 80.3236 205.648 76.4688 213.99C72.6123 222.331 62.7148 225.972 54.3675 222.121C31.7276 211.669 24.4207 188.615 22.5558 170.153C20.7981 152.745 23.252 134.783 26.2773 122.263C24.4559 121.235 22.6899 120.134 21.004 118.943C0.00288792 104.103 -1.49062 78.8834 0.793586 60.3499C3.18819 40.9259 10.4568 21.6587 15.2568 10.2121Z" fill="#FAFAFA" fill-opacity="0.1"/>
</svg>
