<svg width="56" height="56" viewBox="0 0 56 56" fill="none" xmlns="http://www.w3.org/2000/svg">
<rect x="1.5" y="1.5" width="53" height="53" rx="14.5" fill="#1B1671" stroke="url(#paint0_linear_447_2509)" stroke-width="3"/>
<path d="M31.4154 39.2196C33.343 39.2198 34.9058 40.7824 34.9058 42.7101C34.9057 44.6376 33.3429 46.2003 31.4154 46.2005C29.4877 46.2005 27.9251 44.6377 27.925 42.7101C27.925 40.7823 29.4877 39.2196 31.4154 39.2196Z" fill="#FAFAFA"/>
<path d="M15.5451 10.6044C16.0681 9.35647 17.5039 8.7689 18.7518 9.29189C19.9997 9.8149 20.5872 11.25 20.0643 12.4979C19.4022 14.0777 18.5479 16.4114 18.2801 18.5847C17.9963 20.8893 18.4613 22.075 19.2194 22.611C20.6938 23.6532 23.7758 24.1777 27.5517 23.0178C31.2089 21.8942 35.1975 19.2582 38.2185 14.5761C38.9521 13.4393 40.4682 13.1126 41.605 13.846C42.7418 14.5795 43.0691 16.0956 42.3358 17.2325C38.686 22.8891 33.747 26.2405 28.9907 27.7018C26.5793 28.4425 24.1188 28.7171 21.8704 28.4995C21.5496 29.9288 21.3151 31.8813 21.4944 33.6586C21.7096 35.7905 22.4143 36.9192 23.3544 37.3534C24.5825 37.9209 25.1186 39.3764 24.5514 40.6046C23.9839 41.8326 22.5278 42.3687 21.2996 41.8016C17.9684 40.2629 16.8934 36.8688 16.619 34.1508C16.3604 31.5878 16.7214 28.9435 17.1666 27.1002C16.8985 26.9488 16.6387 26.7875 16.3907 26.6121C13.3006 24.4274 13.081 20.7144 13.417 17.9858C13.7693 15.1263 14.8388 12.2897 15.5451 10.6044Z" fill="#FAFAFA"/>
<defs>
<linearGradient id="paint0_linear_447_2509" x1="28" y1="0" x2="28" y2="56" gradientUnits="userSpaceOnUse">
<stop stop-color="#4F39F6"/>
<stop offset="1" stop-color="#00A6F4"/>
</linearGradient>
</defs>
</svg>
