<svg width="295" height="72" viewBox="0 0 295 72" fill="none" xmlns="http://www.w3.org/2000/svg">
<path d="M70.0756 8.6499V23.2124H66.6381V8.6499H70.0756ZM70.1381 24.3999V31.6812H54.8569V33.9624H70.9819V36.6499H51.4506V29.1499H66.6694V27.0562H51.3881V24.3999H70.1381ZM63.2631 10.0562V12.8687H57.3569C57.4975 15.9937 59.8881 18.9468 64.2631 20.1499L62.5756 22.8374C59.2787 21.8843 56.9194 19.8687 55.6381 17.3062C54.3725 20.1343 51.9037 22.3843 48.4194 23.4312L46.8256 20.6812C51.2006 19.3843 53.6381 16.2124 53.8256 12.8687H47.7319V10.0562H63.2631ZM78.3731 10.3687V14.4312H84.6856V10.3687H88.1231V12.9937H93.8106V8.6499H97.2794V25.6187H93.8106V21.5562H88.1231V23.8062H74.9044V10.3687H78.3731ZM78.3731 21.0874H84.6856V17.1499H78.3731V21.0874ZM87.7169 26.1187C93.7169 26.1187 97.3731 28.0874 97.3731 31.5249C97.3731 34.8999 93.7169 36.8687 87.7169 36.8687C81.7481 36.8687 78.0919 34.8999 78.1231 31.5249C78.0919 28.0874 81.7481 26.1187 87.7169 26.1187ZM87.7169 28.7749C83.7794 28.7749 81.5606 29.7124 81.5606 31.5249C81.5606 33.2437 83.7794 34.1812 87.7169 34.1812C91.6544 34.1812 93.9044 33.2437 93.9044 31.5249C93.9044 29.7124 91.6544 28.7749 87.7169 28.7749ZM88.1231 18.7437H93.8106V15.7437H88.1231V18.7437ZM131.968 8.6499V36.8999H128.624V8.6499H131.968ZM126.249 9.1499V35.5249H122.968V26.6187H119.281C118.234 29.3999 116.359 30.978 113.968 30.9624C110.281 30.9937 107.874 27.0874 107.874 20.8687C107.874 14.6499 110.281 10.8062 113.968 10.8062C116.359 10.8062 118.218 12.3687 119.281 15.1187H122.968V9.1499H126.249ZM113.968 14.0874C112.124 14.0562 111.031 16.4624 111.062 20.8687C111.031 25.2749 112.124 27.6812 113.968 27.6499C115.843 27.6812 116.999 25.2749 116.999 20.8687C116.999 16.4624 115.843 14.0562 113.968 14.0874ZM119.968 17.9312C120.109 18.8374 120.187 19.8218 120.187 20.8687C120.187 21.8999 120.109 22.8687 119.999 23.7749H122.968V17.9312H119.968ZM160.359 22.7437V25.5249H134.609V22.7437H160.359ZM157.203 27.9624V36.8999H153.734V30.7124H137.453V27.9624H157.203ZM149.172 8.7124V11.3687H157.828V14.0874H149.422C149.797 16.4937 153.109 18.4624 159.078 18.8687L157.984 21.5249C152.953 21.103 149.219 19.5249 147.453 17.0562C145.688 19.5249 141.938 21.103 136.922 21.5249L135.828 18.8687C141.734 18.4624 145.078 16.4937 145.484 14.0874H137.141V11.3687H145.734V8.7124H149.172ZM194.392 30.6499V33.4937H168.579V30.6499H179.704V25.1499H171.423V10.5249H174.892V15.1499H187.986V10.5249H191.454V25.1499H183.142V30.6499H194.392ZM174.892 22.3374H187.986V17.9312H174.892V22.3374ZM218.658 11.2437V13.9624C218.627 17.4624 218.627 21.3999 217.533 27.3062L214.033 26.9312C215.127 21.4312 215.127 17.4155 215.158 14.0249H198.283V11.2437H218.658ZM221.346 30.3999V33.2437H195.596V30.3999H205.096V20.5874H208.533V30.3999H221.346ZM233.049 15.4312C233.049 20.6812 235.549 25.8374 240.049 27.8062L237.956 30.5874C234.753 29.0249 232.503 26.0249 231.299 22.3374C230.065 26.228 227.768 29.4624 224.518 31.1187L222.331 28.3062C226.924 26.1499 229.487 20.7124 229.518 15.4312V10.9312H233.049V15.4312ZM246.299 8.6499V36.9312H242.862V20.5874H236.924V17.7749H242.862V8.6499H246.299Z" fill="#FAFAFA"/>
<path d="M46.2975 53.4937V57.1187H48.3756V58.1499H46.2975V61.7905H45.0631V53.4937H46.2975ZM41.8288 62.0562C44.6569 62.0562 46.4069 63.0405 46.4069 64.6968C46.4069 66.3843 44.6569 67.353 41.8288 67.353C38.985 67.353 37.2194 66.3843 37.2194 64.6968C37.2194 63.0405 38.985 62.0562 41.8288 62.0562ZM41.8288 63.0718C39.735 63.0562 38.4225 63.6812 38.4225 64.6968C38.4225 65.728 39.735 66.3687 41.8288 66.3687C43.9069 66.3687 45.2194 65.728 45.2194 64.6968C45.2194 63.6812 43.9069 63.0562 41.8288 63.0718ZM42.235 54.5562V55.5718H37.2663V59.6499C40.0788 59.6343 41.7038 59.5483 43.5631 59.1655L43.6881 60.1812C41.7506 60.5718 40.0788 60.6499 37.1413 60.6499H36.0631V54.5562H42.235ZM60.3994 53.5093V63.6968H59.1806V53.5093H60.3994ZM60.8369 66.0562V67.0874H51.4306V62.7593H52.6494V66.0562H60.8369ZM53.8525 55.6812C53.8369 57.7905 55.29 59.6968 57.3525 60.4468L56.7119 61.4312C55.1025 60.814 53.8525 59.564 53.2431 57.9624C52.6259 59.6655 51.3603 61.0327 49.7431 61.6812L49.0713 60.728C51.1806 59.9155 52.6025 57.8687 52.6025 55.6812V54.2905H53.8525V55.6812ZM66.9856 54.5093C69.1731 54.5093 70.72 55.8374 70.72 57.7749C70.72 59.7124 69.1731 61.0405 66.9856 61.0405C64.7981 61.0405 63.22 59.7124 63.2356 57.7749C63.22 55.8374 64.7981 54.5093 66.9856 54.5093ZM66.9856 55.5874C65.5013 55.5874 64.4231 56.478 64.4388 57.7749C64.4231 59.0718 65.5013 59.9624 66.9856 59.9624C68.4544 59.9624 69.5169 59.0718 69.5169 57.7749C69.5169 56.478 68.4544 55.5874 66.9856 55.5874ZM73.8294 53.4937V67.4155H72.6106V53.4937H73.8294ZM62.5169 63.3062C65.0794 63.3062 68.6106 63.2905 71.6888 62.8374L71.7825 63.7437C68.6106 64.3374 65.1888 64.353 62.6888 64.353L62.5169 63.3062ZM91.0956 53.4937V60.7124H89.8925V53.4937H91.0956ZM91.1113 61.3843V64.6968H83.3144V66.2437H91.6113V67.228H82.1113V63.7749H89.8925V62.353H82.08V61.3843H91.1113ZM84.6425 55.4624C84.6425 57.2749 86.1269 58.853 88.2206 59.478L87.6113 60.4312C85.9706 59.9155 84.6659 58.814 84.0488 57.3843C83.4472 58.9468 82.1191 60.1655 80.4238 60.728L79.8456 59.7593C81.9238 59.0718 83.4081 57.3687 83.4081 55.4624V55.3062H80.1581V54.2905H87.8456V55.3062H84.6425V55.4624ZM95.0725 54.353V56.5874H98.9475V54.353H100.151V55.7749H103.432V53.4937H104.666V61.9155H103.432V59.6499H100.151V60.8843H93.8538V54.353H95.0725ZM95.0725 59.8843H98.9475V57.5718H95.0725V59.8843ZM100.057 62.1812C102.948 62.1968 104.713 63.1343 104.713 64.7905C104.713 66.4155 102.948 67.353 100.057 67.353C97.1663 67.353 95.4006 66.4155 95.4006 64.7905C95.4006 63.1343 97.1663 62.1968 100.057 62.1812ZM100.057 63.1499C97.9319 63.1499 96.6038 63.7593 96.6194 64.7905C96.6038 65.7905 97.9319 66.3843 100.057 66.3843C102.182 66.3843 103.494 65.7905 103.494 64.7905C103.494 63.7593 102.182 63.1499 100.057 63.1499ZM100.151 58.6343H103.432V56.7749H100.151V58.6343ZM112.987 53.7437C116.081 53.7437 117.893 54.5874 117.893 56.1343C117.893 57.7124 116.081 58.5562 112.987 58.5718C109.893 58.5562 108.065 57.7124 108.065 56.1343C108.065 54.5874 109.893 53.7437 112.987 53.7437ZM112.987 54.6655C110.674 54.6655 109.331 55.228 109.346 56.1343C109.331 57.103 110.674 57.6343 112.987 57.6343C115.284 57.6343 116.643 57.103 116.643 56.1343C116.643 55.228 115.284 54.6655 112.987 54.6655ZM119.315 59.5093V60.5093H106.659V59.5093H119.315ZM117.69 61.7124V64.8218H109.44V66.2593H118.112V67.228H108.221V63.9155H116.487V62.6499H108.19V61.7124H117.69ZM135.769 53.4937V67.3843H134.581V53.4937H135.769ZM133.003 53.7905V66.6812H131.831V62.1187H129.613C129.128 63.5093 128.206 64.3218 127.019 64.3218C125.206 64.3218 124.034 62.4468 124.034 59.4937C124.034 56.5405 125.206 54.6655 127.019 54.6655C128.206 54.6655 129.128 55.478 129.613 56.8687H131.831V53.7905H133.003ZM127.019 55.8218C125.878 55.8218 125.175 57.228 125.175 59.4937C125.175 61.7437 125.878 63.1655 127.019 63.1499C128.144 63.1655 128.878 61.7437 128.878 59.4937C128.878 57.228 128.144 55.8218 127.019 55.8218ZM129.878 57.8843C129.972 58.3765 130.019 58.9155 130.019 59.4937C130.019 60.064 129.972 60.603 129.894 61.0874H131.831V57.8843H129.878ZM150.027 60.5093V61.5093H137.371V60.5093H150.027ZM148.464 63.0093V67.3843H147.23V64.0093H138.777V63.0093H148.464ZM144.293 53.4624V54.8999H148.746V55.8843H144.371C144.457 57.4624 146.652 58.5483 149.277 58.7749L148.871 59.7437C146.582 59.4937 144.535 58.6499 143.699 57.2437C142.855 58.6499 140.808 59.4937 138.527 59.7437L138.121 58.7749C140.73 58.5483 142.925 57.4624 143.027 55.8843H138.683V54.8999H143.089V53.4624H144.293ZM161.629 53.4937V59.228H163.957V60.2437H161.629V67.3843H160.41V53.4937H161.629ZM159.066 55.728V56.7437H150.801V55.728H154.379V53.6655H155.598V55.728H159.066ZM155.004 57.8999C156.973 57.8999 158.394 59.2124 158.41 61.0874C158.394 62.9624 156.973 64.2749 155.004 64.2749C153.019 64.2749 151.582 62.9624 151.598 61.0874C151.582 59.2124 153.019 57.8999 155.004 57.8999ZM155.004 58.9312C153.707 58.9312 152.754 59.8374 152.769 61.0874C152.754 62.353 153.707 63.2437 155.004 63.228C156.285 63.2437 157.223 62.353 157.238 61.0874C157.223 59.8374 156.285 58.9312 155.004 58.9312ZM175.621 57.7124V58.6968H166.106V54.0093H167.324V57.7124H175.621ZM177.09 60.5874V61.5874H164.371V60.5874H177.09ZM175.699 66.0249V67.0405H166.027V63.0093H167.246V66.0249H175.699ZM182.778 66.1187H181.309L185.45 54.8062H186.934L191.075 66.1187H189.591L188.466 62.9312H183.919L182.778 66.1187ZM184.341 61.6968H188.028L186.231 56.6343H186.137L184.341 61.6968ZM193.693 54.8062V66.1187H192.286V54.8062H193.693ZM197.466 65.0718L196.247 69.3218H195.091L195.951 65.0718H197.466ZM213.514 53.4937V57.0093H215.607V58.0562H213.514V61.6812H212.295V53.4937H213.514ZM213.514 62.4468V67.4155H212.295V63.4312H204.42V62.4468H213.514ZM209.498 54.478V55.4937H204.529V59.603C207.318 59.5874 208.904 59.5171 210.764 59.1343L210.92 60.1343C208.967 60.5249 207.311 60.603 204.389 60.603H203.311V54.478H209.498ZM227.678 53.4937V67.4155H226.459V59.7593H223.522V58.7437H226.459V53.4937H227.678ZM223.288 54.7749V55.7905H218.038V58.6812H222.678V59.6812H218.038V63.0405C220.592 63.0405 222.217 62.9546 224.131 62.6187L224.272 63.6343C222.256 63.9624 220.553 64.0562 217.866 64.0562H216.803V54.7749H223.288ZM237.554 54.3999C239.694 54.4155 241.241 55.728 241.257 57.6655C241.241 59.4077 239.991 60.6499 238.179 60.8687V63.2437C239.476 63.1812 240.78 63.0874 241.991 62.9312L242.069 63.853C239.132 64.353 235.835 64.3843 233.398 64.3687L233.194 63.3374C234.312 63.3296 235.608 63.3218 236.944 63.2749V60.8687C235.101 60.6577 233.835 59.4155 233.851 57.6655C233.835 55.728 235.382 54.4155 237.554 54.3999ZM237.554 55.4624C236.101 55.4624 235.038 56.3687 235.054 57.6655C235.038 58.9624 236.101 59.8687 237.554 59.8687C238.991 59.8687 240.038 58.9624 240.054 57.6655C240.038 56.3687 238.991 55.4624 237.554 55.4624ZM244.101 53.4937V59.228H246.366V60.2905H244.101V67.3843H242.882V53.4937H244.101ZM258.327 53.4937V67.4155H257.093V53.4937H258.327ZM250.937 54.5718C252.999 54.5874 254.484 56.4624 254.484 59.4155C254.484 62.3687 252.999 64.2437 250.937 64.2437C248.859 64.2437 247.39 62.3687 247.39 59.4155C247.39 56.4624 248.859 54.5874 250.937 54.5718ZM250.937 55.6655C249.546 55.6812 248.577 57.1499 248.577 59.4155C248.577 61.6812 249.546 63.1499 250.937 63.1499C252.327 63.1499 253.296 61.6812 253.296 59.4155C253.296 57.1499 252.327 55.6812 250.937 55.6655Z" fill="#A3B3FF"/>
</svg>
